<?xml version="1.0" encoding="utf-8"?>
<!-- Generator: Adobe Illustrator 25.0.0, SVG Export Plug-In . SVG Version: 6.00 Build 0)  -->
<svg version="1.1" id="Layer_1" xmlns="http://www.w3.org/2000/svg" xmlns:xlink="http://www.w3.org/1999/xlink" x="0px" y="0px"
	 viewBox="0 0 482 235" style="enable-background:new 0 0 482 235;" xml:space="preserve">
<style type="text/css">
	.st0{fill:#B6DA9B;}
	.st1{opacity:0.5;fill:#4CA3BB;}
	.st2{opacity:0.5;fill:#71BD84;}
	.st3{fill:#45803C;}
	.st4{fill:url(#SVGID_1_);}
	.st5{fill:url(#SVGID_2_);}
	.st6{fill:url(#SVGID_3_);}
	.st7{fill:url(#SVGID_4_);}
	.st8{fill:url(#SVGID_5_);}
	.st9{fill:url(#SVGID_6_);}
</style>
<g>
	<path class="st0" d="M141.8,152.4c0,0-16.2,2.4-16.5-16.5c0-0.6-0.1-1.2-0.2-1.8c-0.1-0.5-0.2-1-0.3-1.5c-0.1-0.2-0.1-0.4-0.2-0.6
		c-0.4-1.1-0.9-2.2-1.5-3.2c0,0-0.1-0.1-0.1-0.1c-0.2-0.4-0.5-0.7-0.8-1.1c-0.7-0.8-1.6-1.5-2.5-2.2c0,0,0,0-0.1,0
		c-0.3-0.2-0.6-0.4-0.9-0.5c-0.1-0.1-0.2-0.1-0.3-0.1c-0.3-0.1-0.5-0.3-0.8-0.4c-0.2-0.1-0.3-0.1-0.5-0.2c-0.2-0.1-0.4-0.2-0.7-0.2
		c-0.2-0.1-0.4-0.1-0.7-0.2c-0.2,0-0.4-0.1-0.6-0.1c-0.3-0.1-0.6-0.1-0.9-0.1c-0.1,0-0.3-0.1-0.4-0.1c-0.4,0-0.9-0.1-1.3-0.1
		c0,0,0,0,0,0c0,0,0,0,0,0c-0.5,0-0.9,0-1.3,0.1c-0.1,0-0.3,0-0.4,0.1c-0.3,0-0.6,0.1-0.8,0.1c-0.2,0-0.4,0.1-0.6,0.1
		c-0.2,0.1-0.4,0.1-0.7,0.2c-0.2,0.1-0.4,0.2-0.7,0.2c-0.2,0.1-0.3,0.1-0.5,0.2c-0.3,0.1-0.5,0.2-0.8,0.4c-0.1,0-0.2,0.1-0.3,0.1
		c-0.3,0.2-0.6,0.3-0.9,0.5c0,0,0,0-0.1,0c-0.9,0.6-1.7,1.3-2.5,2.2c-0.3,0.3-0.5,0.7-0.8,1.1c0,0.1-0.1,0.1-0.1,0.1
		c-0.7,1-1.2,2-1.5,3.2c-0.1,0.2-0.1,0.4-0.2,0.6c-0.1,0.5-0.2,1-0.3,1.5c-0.1,0.6-0.2,1.2-0.2,1.8c-0.3,18.9-16.5,16.5-16.5,16.5
		c-6.9,0-12.5,5.6-12.5,12.5c0,6.9,5.6,12.5,12.5,12.5c6.9,0,12.5-5.6,12.5-12.5c-0.1-16.6,13.9-16.7,16.2-16.6c0.1,0,0.2,0,0.3,0
		c0,0,0,0,0,0c0,0,0,0,0,0c0,0,0,0,0,0l0,0c0.1,0,0.2,0,0.3,0c2.3-0.1,16.3,0,16.2,16.6c-0.1,6.9,5.6,12.5,12.5,12.5
		s12.5-5.6,12.5-12.5C154.3,157.9,148.7,152.4,141.8,152.4z"/>
	<path class="st1" d="M69.2,108.4c0,0,2.4,16.2-16.5,16.5c-0.6,0-1.2,0.1-1.8,0.2c-0.5,0.1-1,0.2-1.5,0.3c-0.2,0.1-0.4,0.1-0.6,0.2
		c-1.1,0.4-2.2,0.9-3.2,1.5c0,0-0.1,0.1-0.1,0.1c-0.4,0.2-0.7,0.5-1.1,0.8c-0.8,0.7-1.5,1.6-2.2,2.5c0,0,0,0,0,0.1
		c-0.2,0.3-0.4,0.6-0.5,0.9c-0.1,0.1-0.1,0.2-0.1,0.3c-0.1,0.3-0.3,0.5-0.4,0.8c-0.1,0.2-0.1,0.3-0.2,0.5c-0.1,0.2-0.2,0.4-0.2,0.7
		c-0.1,0.2-0.1,0.4-0.2,0.7c0,0.2-0.1,0.4-0.1,0.6c-0.1,0.3-0.1,0.6-0.1,0.9c0,0.1-0.1,0.3-0.1,0.4c0,0.4-0.1,0.9-0.1,1.3
		c0,0,0,0,0,0c0,0,0,0,0,0c0,0.5,0,0.9,0.1,1.3c0,0.1,0,0.3,0.1,0.4c0,0.3,0.1,0.6,0.1,0.8c0,0.2,0.1,0.4,0.1,0.6
		c0.1,0.2,0.1,0.4,0.2,0.7c0.1,0.2,0.2,0.4,0.2,0.7c0.1,0.2,0.1,0.3,0.2,0.5c0.1,0.3,0.2,0.5,0.4,0.8c0,0.1,0.1,0.2,0.1,0.3
		c0.2,0.3,0.3,0.6,0.5,0.9c0,0,0,0,0,0.1c0.6,0.9,1.3,1.7,2.2,2.5c0.3,0.3,0.7,0.5,1.1,0.8c0.1,0,0.1,0.1,0.1,0.1
		c1,0.7,2,1.2,3.2,1.5c0.2,0.1,0.4,0.1,0.6,0.2c0.5,0.1,1,0.2,1.5,0.3c0.6,0.1,1.2,0.2,1.8,0.2c18.9,0.3,16.5,16.5,16.5,16.5
		c0,6.9,5.6,12.5,12.5,12.5c6.9,0,12.5-5.6,12.5-12.5c0-6.9-5.6-12.5-12.5-12.5C65.1,154.1,65,140,65.1,137.8c0-0.1,0-0.2,0-0.3
		c0,0,0,0,0,0c0,0,0,0,0,0c0,0,0,0,0,0l0,0c0-0.1,0-0.2,0-0.3c-0.1-2.3,0-16.3,16.6-16.2c6.9,0.1,12.5-5.6,12.5-12.5
		S88.5,96,81.7,96C74.8,96,69.2,101.6,69.2,108.4z"/>
	<path class="st1" d="M156.5,166.4c0,0-2.4-16.2,16.5-16.5c0.6,0,1.2-0.1,1.8-0.2c0.5-0.1,1-0.2,1.5-0.3c0.2-0.1,0.4-0.1,0.6-0.2
		c1.1-0.4,2.2-0.9,3.2-1.5c0,0,0.1-0.1,0.1-0.1c0.4-0.2,0.7-0.5,1.1-0.8c0.8-0.7,1.5-1.6,2.2-2.5c0,0,0,0,0-0.1
		c0.2-0.3,0.4-0.6,0.5-0.9c0.1-0.1,0.1-0.2,0.1-0.3c0.1-0.3,0.3-0.5,0.4-0.8c0.1-0.2,0.1-0.3,0.2-0.5c0.1-0.2,0.2-0.4,0.2-0.7
		c0.1-0.2,0.1-0.4,0.2-0.7c0-0.2,0.1-0.4,0.1-0.6c0.1-0.3,0.1-0.6,0.1-0.9c0-0.1,0.1-0.3,0.1-0.4c0-0.4,0.1-0.9,0.1-1.3c0,0,0,0,0,0
		c0,0,0,0,0,0c0-0.5,0-0.9-0.1-1.3c0-0.1,0-0.3-0.1-0.4c0-0.3-0.1-0.6-0.1-0.8c0-0.2-0.1-0.4-0.1-0.6c-0.1-0.2-0.1-0.4-0.2-0.7
		c-0.1-0.2-0.2-0.4-0.2-0.7c-0.1-0.2-0.1-0.3-0.2-0.5c-0.1-0.3-0.2-0.5-0.4-0.8c0-0.1-0.1-0.2-0.1-0.3c-0.2-0.3-0.3-0.6-0.5-0.9
		c0,0,0,0,0-0.1c-0.6-0.9-1.3-1.7-2.2-2.5c-0.3-0.3-0.7-0.5-1.1-0.8c-0.1,0-0.1-0.1-0.1-0.1c-1-0.7-2-1.2-3.2-1.5
		c-0.2-0.1-0.4-0.1-0.6-0.2c-0.5-0.1-1-0.2-1.5-0.3c-0.6-0.1-1.2-0.2-1.8-0.2c-18.9-0.3-16.5-16.5-16.5-16.5
		c0-6.9-5.6-12.5-12.5-12.5c-6.9,0-12.5,5.6-12.5,12.5c0,6.9,5.6,12.5,12.5,12.5c16.6-0.1,16.7,13.9,16.6,16.2c0,0.1,0,0.2,0,0.3
		c0,0,0,0,0,0c0,0,0,0,0,0s0,0,0,0l0,0c0,0.1,0,0.2,0,0.3c0.1,2.3,0,16.3-16.6,16.2c-6.9-0.1-12.5,5.6-12.5,12.5
		c0,6.9,5.6,12.5,12.5,12.5C150.9,178.9,156.5,173.3,156.5,166.4z"/>
	<g>
		<path class="st2" d="M112.8,60.9c-7.8,0-14.2,6.3-14.1,14.1c0.2,18.4-15.2,18.9-18.2,18.8c-0.2,0-0.3,0-0.5,0c0,0,0,0,0,0
			c0,0,0,0,0,0c0,0,0,0,0,0c0,0,0,0,0,0c-0.2,0-0.3,0-0.5,0c-3,0.1-18.4-0.3-18.2-18.8c0.1-7.8-6.3-14.1-14.1-14.1
			c-7.8,0-14.1,6.3-14.1,14.1s6.3,14.1,14.1,14.1c0,0,18.4-2.7,18.7,18.7c0,0.7,0.1,1.3,0.2,2c0.1,0.6,0.2,1.1,0.4,1.7
			c0.1,0.2,0.1,0.4,0.2,0.6c0.4,1.3,1,2.5,1.7,3.6c0,0.1,0.1,0.1,0.1,0.2c0.3,0.4,0.5,0.8,0.9,1.2c0.8,0.9,1.8,1.8,2.8,2.5
			c0,0,0,0,0.1,0c0.3,0.2,0.7,0.4,1,0.6c0.1,0.1,0.2,0.1,0.3,0.2c0.3,0.1,0.6,0.3,0.9,0.4c0.2,0.1,0.4,0.1,0.5,0.2
			c0.2,0.1,0.5,0.2,0.7,0.3c0.2,0.1,0.5,0.1,0.7,0.2c0.2,0.1,0.4,0.1,0.6,0.2c0.3,0.1,0.6,0.1,1,0.2c0.2,0,0.3,0.1,0.5,0.1
			c0.5,0.1,1,0.1,1.5,0.1c0,0,0,0,0,0c0,0,0,0,0,0c0.5,0,1,0,1.5-0.1c0.2,0,0.3-0.1,0.5-0.1c0.3,0,0.6-0.1,1-0.2
			c0.2,0,0.4-0.1,0.6-0.2c0.3-0.1,0.5-0.1,0.7-0.2c0.3-0.1,0.5-0.2,0.7-0.3c0.2-0.1,0.4-0.1,0.5-0.2c0.3-0.1,0.6-0.3,0.9-0.4
			c0.1-0.1,0.2-0.1,0.3-0.2c0.3-0.2,0.7-0.4,1-0.6c0,0,0,0,0.1,0c1-0.7,2-1.5,2.8-2.5c0.3-0.4,0.6-0.8,0.9-1.2
			c0-0.1,0.1-0.1,0.1-0.2c0.7-1.1,1.3-2.3,1.7-3.6c0.1-0.2,0.1-0.4,0.2-0.6c0.1-0.5,0.3-1.1,0.4-1.7c0.1-0.7,0.2-1.3,0.2-2
			c0.4-21.4,18.7-18.7,18.7-18.7c7.8,0,14.1-6.3,14.1-14.1S120.6,60.9,112.8,60.9z"/>
		<path class="st2" d="M178.5,60.9c-7.8,0-14.2,6.3-14.1,14.1c0.2,18.4-15.2,18.9-18.2,18.8c-0.2,0-0.3,0-0.5,0c0,0,0,0,0,0
			c0,0,0,0,0,0c0,0,0,0,0,0c0,0,0,0,0,0c-0.2,0-0.3,0-0.5,0c-3,0.1-18.4-0.3-18.2-18.8c0.1-7.8-6.3-14.1-14.1-14.1
			c-7.8,0-14.1,6.3-14.1,14.1s6.3,14.1,14.1,14.1c0,0,18.4-2.7,18.7,18.7c0,0.7,0.1,1.3,0.2,2c0.1,0.6,0.2,1.1,0.4,1.7
			c0.1,0.2,0.1,0.4,0.2,0.6c0.4,1.3,1,2.5,1.7,3.6c0,0.1,0.1,0.1,0.1,0.2c0.3,0.4,0.5,0.8,0.9,1.2c0.8,0.9,1.8,1.8,2.8,2.5
			c0,0,0,0,0.1,0c0.3,0.2,0.7,0.4,1,0.6c0.1,0.1,0.2,0.1,0.3,0.2c0.3,0.1,0.6,0.3,0.9,0.4c0.2,0.1,0.4,0.1,0.5,0.2
			c0.2,0.1,0.5,0.2,0.7,0.3c0.2,0.1,0.5,0.1,0.7,0.2c0.2,0.1,0.4,0.1,0.6,0.2c0.3,0.1,0.6,0.1,1,0.2c0.2,0,0.3,0.1,0.5,0.1
			c0.5,0.1,1,0.1,1.5,0.1c0,0,0,0,0,0c0,0,0,0,0,0c0.5,0,1,0,1.5-0.1c0.2,0,0.3-0.1,0.5-0.1c0.3,0,0.6-0.1,1-0.2
			c0.2,0,0.4-0.1,0.6-0.2c0.3-0.1,0.5-0.1,0.7-0.2c0.3-0.1,0.5-0.2,0.7-0.3c0.2-0.1,0.4-0.1,0.5-0.2c0.3-0.1,0.6-0.3,0.9-0.4
			c0.1-0.1,0.2-0.1,0.3-0.2c0.3-0.2,0.7-0.4,1-0.6c0,0,0,0,0.1,0c1-0.7,2-1.5,2.8-2.5c0.3-0.4,0.6-0.8,0.9-1.2
			c0-0.1,0.1-0.1,0.1-0.2c0.7-1.1,1.3-2.3,1.7-3.6c0.1-0.2,0.1-0.4,0.2-0.6c0.1-0.5,0.3-1.1,0.4-1.7c0.1-0.7,0.2-1.3,0.2-2
			c0.4-21.4,18.7-18.7,18.7-18.7c7.8,0,14.1-6.3,14.1-14.1S186.3,60.9,178.5,60.9z"/>
	</g>
	<g>
		<g>
			<g>
				<path class="st3" d="M235.1,106.5h-7.9V87.3h-12.7v19.2h-7.9V62h7.9v17.4h12.7V62h7.9V106.5z"/>
				<path class="st3" d="M239.8,72.5h8.5l4.6,19.1c0.3,1.1,0.5,2.2,0.6,3.4c0.1,1.2,0.2,2.3,0.2,3.2h0.2c0-0.5,0.1-1,0.1-1.6
					c0.1-0.6,0.1-1.1,0.2-1.7c0.1-0.6,0.2-1.2,0.3-1.8c0.1-0.6,0.2-1.1,0.3-1.6l4.5-19.1h8.6l-11.3,38.4c-1.1,3.6-2.5,6.3-4.3,8
					c-1.8,1.7-4.1,2.6-6.8,2.6c-0.9,0-1.6-0.1-2.3-0.2c-0.6-0.1-1.2-0.2-1.7-0.4v-7.4c0.4,0.1,0.8,0.2,1.3,0.3
					c0.5,0.1,1.1,0.1,1.7,0.1c0.8,0,1.5-0.1,2.1-0.4c0.6-0.3,1.1-0.6,1.5-1.1c0.4-0.5,0.8-1.1,1.1-1.7c0.3-0.7,0.6-1.4,0.8-2.3
					l0.5-1.7L239.8,72.5z"/>
				<path class="st3" d="M295.5,72.5v5.1l-4.1,1.6c0.3,0.7,0.6,1.4,0.7,2.1c0.1,0.7,0.2,1.5,0.2,2.4c0,1.7-0.2,3.3-0.7,4.7
					c-0.5,1.4-1.1,2.7-2,3.7c-0.9,1-2,1.8-3.4,2.4c-1.4,0.6-2.9,0.8-4.7,0.8c-0.4,0-0.8,0-1.3-0.1c-0.5-0.1-0.8-0.1-1-0.2
					c-0.3,0.3-0.6,0.7-0.8,1.1c-0.2,0.4-0.3,0.8-0.3,1.4c0,0.4,0.1,0.8,0.3,1c0.2,0.3,0.5,0.5,0.9,0.6c0.4,0.2,0.8,0.3,1.2,0.3
					c0.5,0.1,1,0.1,1.5,0.1h4.4c1.4,0,2.6,0.2,3.7,0.6c1.1,0.4,2,0.9,2.8,1.7s1.3,1.8,1.7,2.9c0.4,1.2,0.6,2.6,0.6,4.2
					c0,1.9-0.3,3.7-1,5.2c-0.6,1.6-1.6,2.9-2.9,4c-1.3,1.1-2.9,1.9-4.8,2.5c-1.9,0.6-4.1,0.9-6.6,0.9c-1.9,0-3.6-0.2-5.1-0.7
					c-1.4-0.4-2.6-1.1-3.6-1.9c-1-0.8-1.7-1.8-2.2-3c-0.5-1.2-0.7-2.5-0.7-3.9c0-1.2,0.2-2.3,0.5-3.2c0.4-0.9,0.8-1.7,1.4-2.3
					c0.6-0.7,1.3-1.2,2-1.6c0.8-0.4,1.5-0.7,2.3-0.9c-0.4-0.2-0.7-0.4-1.1-0.8c-0.3-0.3-0.7-0.7-0.9-1.1c-0.3-0.4-0.5-0.9-0.7-1.4
					c-0.2-0.5-0.3-1.1-0.3-1.6c0-0.7,0.1-1.2,0.2-1.8c0.2-0.5,0.4-1,0.7-1.5c0.3-0.5,0.7-0.9,1.1-1.3c0.5-0.4,1-0.8,1.6-1.2
					c-1.5-0.8-2.7-2-3.6-3.7c-0.9-1.7-1.3-3.7-1.3-6c0-1.8,0.2-3.5,0.7-4.9c0.5-1.4,1.2-2.7,2.1-3.7c0.9-1,2.1-1.8,3.4-2.3
					c1.4-0.5,2.9-0.8,4.7-0.8c0.3,0,0.7,0,1.1,0.1c0.4,0.1,0.8,0.1,1.3,0.2c0.4,0.1,0.8,0.1,1.2,0.2c0.4,0.1,0.6,0.2,0.8,0.2H295.5z
					 M275.2,111.3c0,0.5,0.1,1,0.3,1.5c0.2,0.5,0.5,0.9,0.9,1.3c0.4,0.4,0.9,0.7,1.6,0.9c0.7,0.2,1.5,0.3,2.4,0.3
					c2.6,0,4.6-0.4,6-1.3c1.3-0.9,2-2.1,2-3.6c0-1.3-0.4-2.1-1.2-2.6c-0.8-0.4-2.1-0.6-3.9-0.6h-3.6c-0.5,0-0.9,0.1-1.5,0.2
					c-0.5,0.1-1,0.4-1.5,0.7c-0.4,0.3-0.8,0.8-1.1,1.3C275.3,109.8,275.2,110.5,275.2,111.3z M278,83.6c0,1.8,0.3,3.3,0.9,4.3
					c0.6,1,1.5,1.5,2.6,1.5c1.2,0,2.1-0.5,2.6-1.5c0.5-1,0.8-2.4,0.8-4.3c0-1.8-0.3-3.3-0.8-4.4c-0.5-1.1-1.4-1.6-2.7-1.6
					C279.1,77.6,278,79.6,278,83.6z"/>
				<path class="st3" d="M300.4,63.7c0-0.9,0.1-1.6,0.3-2.2c0.2-0.6,0.5-1,0.9-1.4c0.4-0.4,0.8-0.6,1.3-0.7c0.5-0.1,1.1-0.2,1.6-0.2
					c0.6,0,1.1,0.1,1.6,0.2c0.5,0.1,1,0.4,1.3,0.7c0.4,0.4,0.7,0.8,0.9,1.4c0.2,0.6,0.3,1.3,0.3,2.2c0,0.9-0.1,1.6-0.3,2.2
					c-0.2,0.6-0.5,1.1-0.9,1.4c-0.4,0.4-0.8,0.6-1.3,0.8c-0.5,0.2-1.1,0.2-1.6,0.2c-0.6,0-1.1-0.1-1.6-0.2c-0.5-0.2-1-0.4-1.3-0.8
					c-0.4-0.4-0.7-0.8-0.9-1.4C300.5,65.2,300.4,64.5,300.4,63.7z M308.5,106.5h-7.8v-34h7.8V106.5z"/>
				<path class="st3" d="M329.1,107.1c-2,0-3.9-0.4-5.6-1.1c-1.7-0.7-3.2-1.8-4.4-3.2c-1.2-1.4-2.2-3.2-2.9-5.4
					c-0.7-2.2-1-4.7-1-7.7c0-3,0.3-5.6,0.9-7.8c0.6-2.2,1.5-4.1,2.6-5.6c1.1-1.5,2.5-2.6,4.1-3.4c1.6-0.8,3.3-1.1,5.3-1.1
					c1.9,0,3.6,0.3,5.1,1s2.8,1.7,3.9,3c1.1,1.3,1.9,2.9,2.4,4.9c0.6,1.9,0.9,4.1,0.9,6.6v4.5H323c0,1.3,0.2,2.5,0.5,3.5
					c0.3,1,0.8,1.9,1.3,2.6c0.6,0.7,1.3,1.3,2.1,1.7c0.8,0.4,1.7,0.6,2.8,0.6c0.9,0,1.7-0.1,2.5-0.2c0.8-0.1,1.5-0.3,2.3-0.5
					c0.7-0.2,1.5-0.5,2.2-0.8c0.7-0.3,1.4-0.7,2.2-1.2v7.2c-0.7,0.4-1.4,0.8-2,1.1c-0.7,0.3-1.4,0.5-2.2,0.7
					c-0.8,0.2-1.6,0.4-2.5,0.4C331.2,107.1,330.2,107.1,329.1,107.1z M328.2,78.4c-1.4,0-2.5,0.6-3.4,1.7c-0.9,1.2-1.4,3-1.6,5.4
					h9.9c0-1-0.1-2-0.3-2.9c-0.2-0.9-0.5-1.6-0.9-2.3c-0.4-0.6-0.9-1.1-1.5-1.5C329.7,78.6,329,78.4,328.2,78.4z"/>
				<path class="st3" d="M371.6,106.5h-7.8V86.6c0-2.5-0.3-4.3-0.9-5.5c-0.6-1.2-1.6-1.8-3-1.8c-1,0-1.9,0.2-2.5,0.7
					c-0.7,0.5-1.2,1.2-1.6,2.2c-0.4,1-0.7,2.1-0.9,3.5c-0.2,1.4-0.3,3-0.3,4.8v16h-7.8v-34h5.9l1,4.4h0.4c0.4-0.9,0.9-1.6,1.5-2.3
					c0.6-0.6,1.2-1.1,1.9-1.6c0.7-0.4,1.4-0.7,2.2-0.9s1.6-0.3,2.4-0.3c1.4,0,2.7,0.2,3.8,0.7c1.1,0.5,2.1,1.2,2.9,2.2
					c0.8,1,1.4,2.3,1.9,3.9c0.4,1.6,0.7,3.5,0.7,5.6V106.5z"/>
				<path class="st3" d="M392.1,107.1c-2,0-3.9-0.4-5.6-1.1c-1.7-0.7-3.2-1.8-4.4-3.2c-1.2-1.4-2.2-3.2-2.9-5.4
					c-0.7-2.2-1-4.7-1-7.7c0-3,0.3-5.6,0.9-7.8c0.6-2.2,1.5-4.1,2.6-5.6c1.1-1.5,2.5-2.6,4.1-3.4c1.6-0.8,3.3-1.1,5.3-1.1
					c1.9,0,3.6,0.3,5.1,1s2.8,1.7,3.9,3c1.1,1.3,1.9,2.9,2.4,4.9c0.6,1.9,0.9,4.1,0.9,6.6v4.5H386c0,1.3,0.2,2.5,0.5,3.5
					c0.3,1,0.8,1.9,1.3,2.6c0.6,0.7,1.3,1.3,2.1,1.7c0.8,0.4,1.7,0.6,2.8,0.6c0.9,0,1.7-0.1,2.5-0.2c0.8-0.1,1.5-0.3,2.3-0.5
					c0.7-0.2,1.5-0.5,2.2-0.8c0.7-0.3,1.4-0.7,2.2-1.2v7.2c-0.7,0.4-1.4,0.8-2,1.1c-0.7,0.3-1.4,0.5-2.2,0.7
					c-0.8,0.2-1.6,0.4-2.5,0.4C394.1,107.1,393.2,107.1,392.1,107.1z M391.1,78.4c-1.4,0-2.5,0.6-3.4,1.7c-0.9,1.2-1.4,3-1.6,5.4
					h9.9c0-1-0.1-2-0.3-2.9c-0.2-0.9-0.5-1.6-0.9-2.3c-0.4-0.6-0.9-1.1-1.5-1.5C392.7,78.6,391.9,78.4,391.1,78.4z"/>
			</g>
			<g>
				<linearGradient id="SVGID_1_" gradientUnits="userSpaceOnUse" x1="297.0062" y1="142.7696" x2="454.3616" y2="142.7696">
					<stop  offset="3.435246e-04" style="stop-color:#3A3D3E"/>
					<stop  offset="7.233796e-04" style="stop-color:#022C35"/>
					<stop  offset="0.1909" style="stop-color:#163E4C"/>
					<stop  offset="0.5744" style="stop-color:#316281"/>
					<stop  offset="0.8547" style="stop-color:#3F7BA8"/>
					<stop  offset="1" style="stop-color:#4486BB"/>
				</linearGradient>
				<polygon class="st4" points="302.1,165 323.5,165 323.5,157.2 309.9,157.2 309.9,145.8 322.5,145.8 322.5,138 309.9,138 
					309.9,128.2 323.5,128.2 323.5,120.5 302.1,120.5 				"/>
				<linearGradient id="SVGID_2_" gradientUnits="userSpaceOnUse" x1="297.0062" y1="148.0056" x2="454.3616" y2="148.0056">
					<stop  offset="3.435246e-04" style="stop-color:#3A3D3E"/>
					<stop  offset="7.233796e-04" style="stop-color:#022C35"/>
					<stop  offset="0.1909" style="stop-color:#163E4C"/>
					<stop  offset="0.5744" style="stop-color:#316281"/>
					<stop  offset="0.8547" style="stop-color:#3F7BA8"/>
					<stop  offset="1" style="stop-color:#4486BB"/>
				</linearGradient>
				<polygon class="st5" points="352.1,131 343.3,131 338.4,141.2 333.7,131 324.9,131 334.1,147.6 324.4,165 333.2,165 338.4,154 
					343.7,165 352.5,165 342.8,147.6 				"/>
				<linearGradient id="SVGID_3_" gradientUnits="userSpaceOnUse" x1="297.0062" y1="155.1744" x2="454.3616" y2="155.1744">
					<stop  offset="3.435246e-04" style="stop-color:#3A3D3E"/>
					<stop  offset="7.233796e-04" style="stop-color:#022C35"/>
					<stop  offset="0.1909" style="stop-color:#163E4C"/>
					<stop  offset="0.5744" style="stop-color:#316281"/>
					<stop  offset="0.8547" style="stop-color:#3F7BA8"/>
					<stop  offset="1" style="stop-color:#4486BB"/>
				</linearGradient>
				<path class="st6" d="M376.7,134.8c-0.9-1.5-1.9-2.6-3.1-3.3c-1.2-0.8-2.5-1.1-4-1.1c-0.9,0-1.8,0.1-2.5,0.4
					c-0.8,0.3-1.4,0.6-2,1.1c-0.6,0.5-1.1,1-1.6,1.6c-0.5,0.6-0.9,1.3-1.2,1.9h-0.4l-1.1-4.4h-6.3v49h7.8v-13.8c0-0.3,0-0.7-0.1-1.3
					c0-0.6-0.1-1.1-0.1-1.6c-0.1-0.6-0.1-1.3-0.2-2h0.4c0.4,0.6,0.8,1.1,1.2,1.6c0.4,0.5,0.9,1,1.5,1.4c0.6,0.4,1.2,0.7,2,1
					c0.7,0.2,1.6,0.4,2.5,0.4c1.5,0,2.8-0.4,4.1-1.1c1.2-0.8,2.3-1.9,3.2-3.4c0.9-1.5,1.6-3.3,2.1-5.5c0.5-2.2,0.7-4.8,0.7-7.7
					c0-2.9-0.2-5.4-0.7-7.6C378.2,138.1,377.6,136.3,376.7,134.8z M370.4,155.5c-0.7,1.8-1.9,2.6-3.4,2.6c-0.9,0-1.7-0.2-2.3-0.7
					c-0.6-0.4-1.1-1.1-1.5-2c-0.4-0.9-0.6-1.9-0.8-3.2c-0.2-1.3-0.2-2.7-0.2-4.4v-1c0-1.5,0.1-2.9,0.3-4c0.2-1.1,0.4-2.1,0.8-2.8
					c0.4-0.8,0.9-1.3,1.5-1.7c0.6-0.4,1.3-0.6,2.2-0.6c1.6,0,2.7,0.8,3.4,2.5c0.7,1.7,1.1,4.2,1.1,7.5
					C371.5,151.2,371.1,153.7,370.4,155.5z"/>
				<linearGradient id="SVGID_4_" gradientUnits="userSpaceOnUse" x1="297.0062" y1="147.99" x2="454.3616" y2="147.99">
					<stop  offset="3.435246e-04" style="stop-color:#3A3D3E"/>
					<stop  offset="7.233796e-04" style="stop-color:#022C35"/>
					<stop  offset="0.1909" style="stop-color:#163E4C"/>
					<stop  offset="0.5744" style="stop-color:#316281"/>
					<stop  offset="0.8547" style="stop-color:#3F7BA8"/>
					<stop  offset="1" style="stop-color:#4486BB"/>
				</linearGradient>
				<path class="st7" d="M404.1,134.4c-1.1-1.3-2.4-2.3-3.9-3c-1.5-0.7-3.2-1-5.1-1c-1.9,0-3.7,0.4-5.3,1.1
					c-1.6,0.8-2.9,1.9-4.1,3.4c-1.1,1.5-2,3.4-2.6,5.6c-0.6,2.2-0.9,4.8-0.9,7.8c0,2.9,0.3,5.5,1,7.7c0.7,2.2,1.7,4,2.9,5.4
					c1.2,1.4,2.7,2.5,4.4,3.2c1.7,0.7,3.6,1.1,5.6,1.1c1.1,0,2,0,2.9-0.1c0.9-0.1,1.7-0.2,2.5-0.4c0.8-0.2,1.5-0.5,2.2-0.7
					c0.7-0.3,1.4-0.7,2-1.1V156c-0.7,0.4-1.5,0.8-2.2,1.2s-1.4,0.6-2.2,0.8c-0.7,0.2-1.5,0.4-2.3,0.5c-0.8,0.1-1.6,0.2-2.5,0.2
					c-1,0-2-0.2-2.8-0.6c-0.8-0.4-1.5-0.9-2.1-1.7s-1-1.6-1.3-2.6c-0.3-1-0.5-2.2-0.5-3.5h17.4v-4.5c0-2.5-0.3-4.7-0.9-6.6
					S405.2,135.7,404.1,134.4z M390.2,144.1c0.1-2.5,0.7-4.3,1.6-5.4c0.9-1.2,2-1.7,3.4-1.7c0.8,0,1.5,0.2,2.1,0.5
					c0.6,0.4,1.1,0.9,1.5,1.5c0.4,0.6,0.7,1.4,0.9,2.3c0.2,0.9,0.3,1.8,0.3,2.9H390.2z"/>
				<linearGradient id="SVGID_5_" gradientUnits="userSpaceOnUse" x1="297.0062" y1="147.6856" x2="454.3616" y2="147.6856">
					<stop  offset="3.435246e-04" style="stop-color:#3A3D3E"/>
					<stop  offset="7.233796e-04" style="stop-color:#022C35"/>
					<stop  offset="0.1909" style="stop-color:#163E4C"/>
					<stop  offset="0.5744" style="stop-color:#316281"/>
					<stop  offset="0.8547" style="stop-color:#3F7BA8"/>
					<stop  offset="1" style="stop-color:#4486BB"/>
				</linearGradient>
				<path class="st8" d="M427.8,130.4c-0.2,0-0.5-0.1-0.7-0.1c-0.2,0-0.5,0-0.7,0c-0.9,0-1.8,0.1-2.5,0.4c-0.7,0.3-1.4,0.7-2,1.2
					c-0.6,0.5-1.1,1.1-1.6,1.8s-0.9,1.5-1.3,2.4h-0.4l-1.1-5.1h-5.9v34h7.8v-17.3c0-1.6,0.2-3,0.5-4.1s0.8-2,1.4-2.7
					c0.6-0.7,1.3-1.2,2.2-1.5c0.8-0.3,1.8-0.5,2.8-0.5c0.2,0,0.4,0,0.6,0c0.3,0,0.5,0,0.8,0.1c0.3,0,0.5,0.1,0.8,0.1
					c0.2,0,0.4,0.1,0.6,0.1v-8.7c-0.1,0-0.3-0.1-0.4-0.1C428.3,130.5,428,130.5,427.8,130.4z"/>
				<linearGradient id="SVGID_6_" gradientUnits="userSpaceOnUse" x1="297.0062" y1="144.6874" x2="454.3616" y2="144.6874">
					<stop  offset="3.435246e-04" style="stop-color:#3A3D3E"/>
					<stop  offset="7.233796e-04" style="stop-color:#022C35"/>
					<stop  offset="0.1909" style="stop-color:#163E4C"/>
					<stop  offset="0.5744" style="stop-color:#316281"/>
					<stop  offset="0.8547" style="stop-color:#3F7BA8"/>
					<stop  offset="1" style="stop-color:#4486BB"/>
				</linearGradient>
				<path class="st9" d="M445,158.2c-0.9,0-1.6-0.3-2.1-0.9c-0.5-0.6-0.8-1.6-0.8-2.9V138h6.9v-7h-6.9v-7.2h-5l-2.2,7.2l-4.3,3.1
					v3.9h3.7v16.4c0,2.2,0.2,4,0.7,5.5s1.1,2.6,1.8,3.5c0.8,0.9,1.7,1.5,2.8,1.8c1.1,0.3,2.2,0.5,3.5,0.5c1.3,0,2.4-0.1,3.5-0.4
					c1.1-0.3,2-0.7,2.7-1.1v-6.9c-0.7,0.3-1.4,0.6-2.1,0.8C446.5,158.1,445.8,158.2,445,158.2z"/>
			</g>
		</g>
	</g>
</g>
</svg>
